<svg width="31" height="30" viewBox="0 0 31 30" fill="none" xmlns="http://www.w3.org/2000/svg">
<path d="M9.04183 13.75L14.2085 2.5C15.2362 2.5 16.2218 2.89509 16.9485 3.59835C17.6752 4.30161 18.0835 5.25544 18.0835 6.25V11.25H25.3943C25.7688 11.2459 26.1397 11.3206 26.4814 11.469C26.823 11.6174 27.1272 11.8359 27.373 12.1094C27.6187 12.3829 27.8001 12.7048 27.9045 13.0528C28.0089 13.4009 28.0339 13.7667 27.9777 14.125L26.1952 25.375C26.1017 25.9711 25.7888 26.5145 25.3141 26.905C24.8394 27.2955 24.2348 27.5068 23.6118 27.5H9.04183M9.04183 13.75V27.5M9.04183 13.75H5.16683C4.48169 13.75 3.82461 14.0134 3.34014 14.4822C2.85567 14.9511 2.5835 15.587 2.5835 16.25V25C2.5835 25.663 2.85567 26.2989 3.34014 26.7678C3.82461 27.2366 4.48169 27.5 5.16683 27.5H9.04183" stroke="white" stroke-width="2" stroke-linecap="round" stroke-linejoin="round"/>
<path d="M9.5 13L14.5 2.5L16.5 3.5L18 5L17.5 7L18.5 11H26L28 13L26 25.5L24.5 27.5H9.5V13Z" fill="white"/>
</svg>
