<svg width="40" height="40" viewBox="0 0 40 40" fill="none" xmlns="http://www.w3.org/2000/svg">
<circle cx="19.8447" cy="20.032" r="19.8447" fill="#A47ABF" fill-opacity="0.5"/>
<g clip-path="url(#clip0_258_5100)">
<path d="M28.7071 25.6717C28.7071 26.099 28.5373 26.5089 28.2351 26.811C27.933 27.1132 27.5231 27.283 27.0958 27.283H12.5939C12.1665 27.283 11.7567 27.1132 11.4545 26.811C11.1523 26.5089 10.9825 26.099 10.9825 25.6717V16.8094C10.9825 16.3821 11.1523 15.9722 11.4545 15.67C11.7567 15.3678 12.1665 15.1981 12.5939 15.1981H15.8165L17.4278 12.7811H22.2618L23.8731 15.1981H27.0958C27.5231 15.1981 27.933 15.3678 28.2351 15.67C28.5373 15.9722 28.7071 16.3821 28.7071 16.8094V25.6717Z" stroke="white" stroke-width="2" stroke-linecap="round" stroke-linejoin="round"/>
<path d="M19.8448 24.0603C21.6247 24.0603 23.0675 22.6175 23.0675 20.8377C23.0675 19.0579 21.6247 17.6151 19.8448 17.6151C18.065 17.6151 16.6222 19.0579 16.6222 20.8377C16.6222 22.6175 18.065 24.0603 19.8448 24.0603Z" stroke="white" stroke-width="2" stroke-linecap="round" stroke-linejoin="round"/>
</g>
<defs>
<clipPath id="clip0_258_5100">
<rect width="19.3359" height="19.3359" fill="white" transform="translate(10.1769 10.3641)"/>
</clipPath>
</defs>
</svg>
