<svg width="11" height="12" viewBox="0 0 11 12" fill="none" xmlns="http://www.w3.org/2000/svg">
<g clip-path="url(#clip0_258_6032)">
<path d="M8.92289 0.701355H5.89931C5.73942 0.701355 5.6195 0.701355 5.49959 0.740881C5.37967 0.780406 5.2569 0.868578 5.18267 0.999317L1.15408 5.28024C0.557363 5.91568 0.557363 6.97071 1.15408 7.61528L4.30615 10.9628C4.90287 11.6408 5.89931 11.6408 6.536 10.9628L10.5246 6.7214C10.6017 6.63322 10.6845 6.51161 10.7587 6.38391C10.7587 6.38391 10.7587 6.38391 10.7587 6.33526C10.7959 6.29574 10.7959 6.29574 10.7959 6.29574C10.7959 6.16804 10.8415 6.08595 10.7959 5.91568L10.8415 2.68979C10.8415 1.3368 10.1991 0.701355 8.92289 0.701355ZM9.60241 3.15802C9.32261 3.45598 8.80868 3.45598 8.52888 3.11849C8.36899 2.9908 8.44608 3.0364 8.52888 3.11849C8.21196 2.82053 8.21196 2.27325 8.4832 1.97529C8.80583 1.63781 9.32261 1.63781 9.64524 1.93577C9.96501 2.27021 9.96501 2.81749 9.60241 3.15802Z" fill="white"/>
</g>
<defs>
<clipPath id="clip0_258_6032">
<rect width="10.1357" height="10.7692" fill="white" transform="translate(0.705566 0.701355)"/>
</clipPath>
</defs>
</svg>
