<svg width="73" height="73" viewBox="0 0 73 73" fill="none" xmlns="http://www.w3.org/2000/svg">
<path d="M17.3459 43.9151L13.363 39.9175C12.9917 39.5479 12.7003 39.1062 12.5074 38.6209C12.3144 38.1356 12.2242 37.6172 12.2425 37.0991C12.2608 36.5809 12.3872 36.0744 12.6136 35.6119C12.84 35.1494 13.1615 34.7411 13.5573 34.4133C18.0236 30.8512 23.2833 28.4028 28.9139 27.2647C34.1106 26.1638 39.508 26.2255 44.7227 27.4455C50.3954 28.7208 55.7136 31.3089 60.2464 35.0002C60.6462 35.3361 60.9732 35.7503 61.2067 36.2164C61.4402 36.6824 61.5751 37.1902 61.6026 37.7072C61.6302 38.2243 61.5499 38.7393 61.3668 39.2196C61.1838 39.6999 60.902 40.1349 60.5394 40.4968L56.6179 44.4039C55.9899 45.0424 55.1467 45.4261 54.2456 45.4837C53.3444 45.5412 52.4468 45.2686 51.72 44.7167C50.2799 43.6024 48.7214 42.6521 47.0744 41.884C46.4233 41.5823 45.8688 41.1019 45.4766 40.4997C45.0843 39.8975 44.8708 39.1988 44.8613 38.4863L44.8352 35.14C39.6506 33.658 34.189 33.5955 29.0264 34.9591L29.0525 38.3055C29.054 39.0178 28.8513 39.7118 28.4684 40.3051C28.0854 40.8984 27.5383 41.3662 26.8918 41.6531C25.2564 42.3836 23.7124 43.2984 22.2893 44.38C21.5634 44.9213 20.6586 45.1731 19.7472 45.0874C18.8357 45.0016 17.9811 44.5844 17.3459 43.9151Z" fill="#B30401" stroke="#B30401" stroke-width="2" stroke-linecap="round" stroke-linejoin="round"/>
<path d="M28.4504 39.7231L28.2386 34.9544L35.3562 34.0928L43.8958 34.5595L44.1075 39.3282L45.2043 41.0056L48.7139 43.3041L53.2597 45.9175L56.2474 44.1371L59.4999 40.645L61.0354 36.8552L55.7331 32.5559L47.0121 28.0018L34.3275 26.2756L20.1681 29.7018L11.5604 35.375L11.6814 38.1C14.0875 41.8491 15.9008 43.3512 19.8276 45.0556L23.1406 42.9261L26.1434 41.4863L28.4504 39.7231Z" fill="#B30401"/>
</svg>
