<svg width="100" height="52" viewBox="0 0 375 62" fill="none" xmlns="http://www.w3.org/2000/svg">
<path d="M121.818 1.21095L0 0V69.0757H375V0H254.185C246.253 0 238.478 2.2029 231.744 6.36393L231.588 6.45411C223.682 11.3623 218.068 17.3011 214.2 22.4928C209.082 29.3591 201.605 34.2158 193.087 35.5813C192.436 35.6844 191.772 35.7746 191.095 35.8647C190.964 35.8776 190.834 35.8905 190.704 35.9034C177.94 37.3204 165.606 31.3816 158.13 21.0499C155.825 17.868 152.881 14.4928 149.117 11.2721C149.052 11.2206 148.987 11.1691 148.935 11.1176C141.406 4.71497 131.742 1.30113 121.818 1.21095Z" fill="#674F77"/>
</svg>
