<svg width="25" height="25" viewBox="0 0 25 25" fill="none" xmlns="http://www.w3.org/2000/svg">
<g clip-path="url(#clip0_258_5126)">
<path d="M21.6976 19.141L21.794 22.1394C21.804 22.4177 21.7559 22.6951 21.6526 22.9537C21.5492 23.2123 21.393 23.4466 21.194 23.6413C20.9949 23.8361 20.7574 23.9871 20.4965 24.0848C20.2357 24.1824 19.9574 24.2245 19.6793 24.2084C16.593 23.9731 13.6049 23.0171 10.9552 21.4172C8.49092 19.9603 6.37768 17.9787 4.76552 15.6131C2.99257 13.0599 1.84597 10.125 1.4186 7.04614C1.38474 6.77056 1.40863 6.49094 1.48876 6.22509C1.56889 5.95924 1.70349 5.71299 1.884 5.50202C2.06451 5.29104 2.28698 5.11996 2.53723 4.99967C2.78748 4.87939 3.06004 4.81252 3.33754 4.80334L6.33599 4.70697C6.8209 4.68661 7.29666 4.84326 7.67461 5.14773C8.05255 5.4522 8.30689 5.88371 8.39021 6.36184C8.54761 7.31734 8.8126 8.25197 9.18012 9.1479C9.32609 9.50132 9.36769 9.88917 9.29999 10.2655C9.23229 10.6418 9.05812 10.9909 8.79813 11.2713L7.56958 12.5814C9.07283 15.0379 11.2112 17.0432 13.7592 18.3856L14.9878 17.0754C15.2509 16.798 15.588 16.6018 15.9592 16.51C16.3304 16.4183 16.7202 16.4349 17.0822 16.5579C17.9999 16.8671 18.9496 17.0715 19.9133 17.1673C20.401 17.2201 20.8523 17.4504 21.1812 17.8144C21.5102 18.1783 21.694 18.6504 21.6976 19.141Z" stroke="white" stroke-width="2" stroke-linecap="round" stroke-linejoin="round"/>
<circle cx="17.3172" cy="5.38774" r="4.5" transform="rotate(-1.84085 17.3172 5.38774)" stroke="white"/>
<path d="M15.4467 9.44991L19.1876 1.32555" stroke="white"/>
</g>
<defs>
<clipPath id="clip0_258_5126">
<rect width="24" height="24" fill="white" transform="translate(0.165405 0.936401) rotate(-1.84085)"/>
</clipPath>
</defs>
</svg>
