<svg width="327" height="307" viewBox="0 0 327 307" fill="none" xmlns="http://www.w3.org/2000/svg">
<g clip-path="url(#clip0_258_7072)">
<path d="M271.932 117.873C271.932 117.873 268.234 131.417 267.683 138.711C267.131 145.997 262.543 165.636 261.412 169.24C260.281 172.851 255.452 181.102 254.731 192.142C254.01 203.181 254.731 227.935 254.731 227.935C254.731 227.935 258.633 231.547 262.133 227.935C262.133 227.935 267.994 202.046 270.765 192.759C273.544 183.479 277.241 174.71 279.094 170.481C280.946 166.253 287.005 141.911 287.005 141.911L288.751 142.223C288.751 142.223 287.931 162.024 288.751 166.771C289.571 171.517 292.35 177.498 291.53 183.273C290.71 189.049 291.636 199.677 292.661 209.063C293.686 218.45 295.85 232.788 295.85 232.788C295.85 232.788 300.063 234.952 303.973 231.653C303.973 231.653 307.055 184.409 307.466 179.974C307.876 175.54 306.539 159.548 306.645 150.786C306.751 142.017 306.511 119.945 303.492 115.199C303.485 115.191 285.945 116.433 271.932 117.873Z" fill="#4C58A9"/>
<path d="M273.763 117.689C273.763 117.689 273.678 118.334 273.523 119.441" stroke="#6999EA" stroke-linecap="round" stroke-linejoin="round"/>
<path d="M273.134 122.265C272.589 126.139 271.762 131.886 270.921 137.185C269.472 146.274 264.508 167.317 265.067 168.828C265.626 170.34 265.767 171.581 264.261 171.851C262.755 172.12 261.794 173.362 263.165 173.773C264.537 174.185 261.659 177.073 261.108 178.314C260.556 179.549 257.679 187.388 256.993 197.704C256.477 205.523 256.088 219.308 255.933 225.523" stroke="#6999EA" stroke-linecap="round" stroke-linejoin="round" stroke-dasharray="5.02 5.02"/>
<path d="M255.897 226.956C255.869 228.077 255.855 228.73 255.855 228.73" stroke="#6999EA" stroke-linecap="round" stroke-linejoin="round"/>
<path d="M278.641 117.221C278.641 117.221 277.949 128.537 276.931 129.012C275.905 129.495 271.89 130.885 271.89 130.885" stroke="#6999EA" stroke-miterlimit="10" stroke-linecap="round" stroke-linejoin="round"/>
<path d="M291.799 116.085C291.799 116.085 293.722 131.148 292.491 133.759C291.261 136.37 288.087 142.102 288.087 142.102" stroke="#6999EA" stroke-miterlimit="10" stroke-linecap="round" stroke-linejoin="round"/>
<path d="M295.906 115.766C295.906 115.766 297.398 129.807 295.906 130.892C294.415 131.978 292.704 133.07 292.704 133.07" stroke="#6999EA" stroke-miterlimit="10" stroke-linecap="round" stroke-linejoin="round"/>
<path d="M286.46 140.463C286.46 140.463 293.311 137.746 298.38 136.37" stroke="#6999EA" stroke-miterlimit="10" stroke-linecap="round" stroke-linejoin="round"/>
<path d="M293.304 140.463C293.304 140.463 298.041 138.64 303.492 139.016" stroke="#6999EA" stroke-miterlimit="10" stroke-linecap="round" stroke-linejoin="round"/>
<path d="M299.073 115.518C299.073 115.518 300.438 124.408 301.675 125.096C302.905 125.784 305.91 126.955 305.91 126.955" stroke="#6999EA" stroke-miterlimit="10" stroke-linecap="round" stroke-linejoin="round"/>
<path d="M290.498 138.973C290.498 138.973 290.519 139.626 290.561 140.74" stroke="#6999EA" stroke-linecap="round" stroke-linejoin="round"/>
<path d="M290.674 143.649C290.985 151.226 291.671 165.558 292.421 167.863C293.446 171.028 297.221 175.703 296.564 176.526C295.913 177.349 292.725 177.626 293.566 178.591C294.407 179.556 295.913 181.89 295.362 183.82C294.902 185.437 297.843 219.514 298.784 230.262" stroke="#6999EA" stroke-linecap="round" stroke-linejoin="round" stroke-dasharray="5.14 5.14"/>
<path d="M298.918 231.717C299.017 232.845 299.074 233.483 299.074 233.483" stroke="#6999EA" stroke-linecap="round" stroke-linejoin="round"/>
<path d="M253.91 227.119C253.91 227.119 251.754 235.576 251.033 239.5C250.312 243.423 251.754 249.227 251.754 249.227C251.754 249.227 264.091 251.625 270.567 249.227C270.567 249.227 273.65 242.806 270.567 240.536C267.485 238.265 264.812 237.542 264.812 237.542C264.812 237.542 263.78 227.744 262.034 227.126C260.28 226.495 255.353 225.778 253.91 227.119Z" fill="#DF4370"/>
<path d="M255.042 231.242C255.042 231.242 259.927 229.283 263.653 231.242" stroke="#EEDBFF" stroke-width="2" stroke-miterlimit="10" stroke-linecap="round" stroke-linejoin="round"/>
<path d="M255.854 234.392C255.854 234.392 260.888 232.696 264.388 234.392" stroke="#EEDBFF" stroke-width="2" stroke-miterlimit="10" stroke-linecap="round" stroke-linejoin="round"/>
<path d="M271.592 246.275C264.508 247.567 254.483 246.283 251.146 245.942C251.415 247.822 251.761 249.213 251.761 249.213C251.761 249.213 264.098 251.611 270.574 249.213C270.56 249.22 271.182 247.914 271.592 246.275Z" fill="#F6EEFF"/>
<path d="M253.09 244.346C253.09 244.346 266.622 246.9 271.911 244.346C272.017 242.863 271.734 241.394 270.56 240.529C267.478 238.258 264.805 237.535 264.805 237.535C264.805 237.535 253.09 235.782 253.09 244.346Z" fill="#F6EEFF"/>
<path d="M295.878 231.589C295.878 231.589 295.262 240.046 294.951 242.423C294.64 244.793 294.64 247.709 295.878 248.574C297.108 249.44 325.48 249.333 325.48 249.333C325.48 249.333 327.431 244.488 325.48 242.011C323.528 239.535 317.872 238.712 313.56 238.4L303.421 230.674C303.421 230.674 299.377 229.425 295.878 231.589Z" fill="#DF4370"/>
<path d="M302.502 236.818C302.502 236.818 305.528 232.37 308.179 233.554" stroke="#EEDBFF" stroke-width="2" stroke-miterlimit="10" stroke-linecap="round" stroke-linejoin="round"/>
<path d="M305.337 239.975C305.337 239.975 308.801 235.236 311.41 236.016" stroke="#EEDBFF" stroke-width="2" stroke-miterlimit="10" stroke-linecap="round" stroke-linejoin="round"/>
<path d="M300.713 240.181C300.713 241.877 299.865 243.246 298.811 243.246C297.758 243.246 296.91 241.877 296.91 240.181C296.91 238.485 297.758 237.116 298.811 237.116C299.858 237.116 300.713 238.485 300.713 240.181Z" fill="#F6EEFF"/>
<path d="M325.48 249.333C325.48 249.333 326.172 247.595 326.321 245.665C324.567 245.85 320.806 246.134 314.38 246.134C306.405 246.134 297.412 245.254 294.782 244.977C294.796 246.566 295.072 248.007 295.878 248.574C297.115 249.433 325.48 249.333 325.48 249.333Z" fill="#F6EEFF"/>
<path d="M312.527 244.466C312.527 244.466 320.926 245.034 326.307 244.211C326.215 243.402 325.974 242.629 325.479 242.004C323.528 239.528 317.872 238.705 313.559 238.393C313.559 238.4 311.092 241.451 312.527 244.466Z" fill="#F6EEFF"/>
<path d="M281.618 51.4516C281.257 51.5084 271.38 54.5591 266.757 56.6237C262.133 58.6883 259.149 62.179 259.149 62.179C259.149 62.179 261.928 72.9418 265.109 79.1143C268.298 85.2868 271.932 96.2199 271.55 99.6254C271.168 103.031 269.528 118.604 269.528 118.604C269.528 118.604 282.07 124.997 291.113 123.762C300.155 122.528 305.5 115.305 305.5 115.305C305.5 115.305 301.696 102.719 300.261 98.2845C298.819 93.8503 298.819 89.1038 299.851 84.9817C300.883 80.8596 303.754 60.1215 303.04 55.9994C303.04 55.9852 295.553 49.1813 281.618 51.4516Z" fill="#AF9BEA"/>
<path d="M265.067 57.4751C265.067 57.4751 271.896 74.6588 273.233 79.6109C274.569 84.5631 276.075 92.8144 276.556 99.4126C277.036 106.011 276.556 121.073 276.556 121.073" stroke="#8570C6" stroke-miterlimit="10" stroke-linecap="round" stroke-linejoin="round"/>
<path d="M273.763 53.9703C273.763 53.9703 281.561 79.093 282.792 86.1098C284.022 93.1266 284.333 100.966 284.743 106.841C285.153 112.722 284.198 123.521 284.198 123.521" stroke="#8570C6" stroke-miterlimit="10" stroke-linecap="round" stroke-linejoin="round"/>
<path d="M289.791 51.0969C289.791 51.0969 289.882 81.3705 290.292 87.4507C290.703 93.531 296.804 122.088 296.804 122.088" stroke="#8570C6" stroke-miterlimit="10" stroke-linecap="round" stroke-linejoin="round"/>
<path d="M298.275 53.1614C298.275 53.1614 296.444 84.0168 295.928 89.2741C295.411 94.5313 303.492 117.504 303.492 117.504" stroke="#8570C6" stroke-miterlimit="10" stroke-linecap="round" stroke-linejoin="round"/>
<path d="M277.326 52.374C277.326 52.374 278.924 54.9636 282.325 54.7507C285.725 54.545 286.482 50.3165 286.482 50.3165C286.482 50.3165 288.546 49.5786 288.956 52.374C289.366 55.1693 286.984 60.1144 283.138 60.6323C279.292 61.1503 276.718 58.9083 275.799 56.6238C274.88 54.3392 275.255 51.2317 277.326 52.374Z" fill="#5F5ED2"/>
<path d="M281.391 11.5007C274.258 11.522 269.471 16.8644 270.016 26.3573C270.567 35.8501 271.522 45.8893 277.142 45.8893C277.142 45.8893 277.828 50.2881 277.142 53.5872C277.142 53.5872 280.571 57.5816 283.307 56.4109C286.05 55.2403 287.005 52.3527 287.005 52.3527C287.005 52.3527 285.909 49.1884 286.185 45.8893C286.185 45.8893 291.53 44.9244 292.491 35.1619C293.446 25.3853 295.913 11.4581 281.391 11.5007Z" fill="#D8847D"/>
<path d="M287.86 29.3867C287.917 29.8692 287.578 30.302 287.097 30.3587C286.616 30.4155 286.185 30.0749 286.128 29.5925C286.072 29.11 286.411 28.6773 286.892 28.6205C287.365 28.5637 287.804 28.9043 287.86 29.3867Z" fill="#8D361F"/>
<path d="M278.302 29.8124C278.358 30.2949 278.019 30.7276 277.538 30.7844C277.057 30.8412 276.626 30.5006 276.57 30.0182C276.513 29.5357 276.852 29.1029 277.333 29.0462C277.807 28.9894 278.238 29.3371 278.302 29.8124Z" fill="#8D361F"/>
<path d="M281.497 25.8038C281.497 25.8038 283.244 32.622 277.962 34.0622C277.962 34.0622 280.027 36.0488 281.773 36.666" stroke="#8D361F" stroke-width="1.5" stroke-miterlimit="10" stroke-linecap="round" stroke-linejoin="round"/>
<path d="M278.302 38.5248C278.302 38.5248 281.936 42.8598 286.114 38.1133" stroke="#8D361F" stroke-width="1.5" stroke-miterlimit="10" stroke-linecap="round" stroke-linejoin="round"/>
<path d="M270.383 31.5648C270.85 31.5506 271.861 30.2736 272.002 25.9386C272.144 21.6037 273.098 18.4465 276.117 17.8931C277.277 17.6803 279.525 17.4107 281.922 17.3255C281.66 17.7228 281.42 18.106 281.193 18.4607C280.522 19.5391 279.949 20.4685 279.299 20.7098C277.368 21.4263 274.943 21.5328 274.922 21.5328C274.017 21.5682 273.31 22.3345 273.339 23.2426C273.374 24.1295 274.102 24.8319 274.979 24.8319C275 24.8319 275.021 24.8319 275.042 24.8319C275.163 24.8248 278.005 24.7112 280.437 23.8031C282.141 23.1717 283.074 21.6605 283.979 20.206C284.587 19.2269 285.23 18.2266 286.1 17.4249C288.383 17.6519 290.271 18.2266 290.773 19.4043C292.074 22.4267 291.777 31.1391 292.951 31.0469C294.131 30.9547 295.227 21.6676 295.432 19.0567C295.524 17.9286 295.644 16.0768 295.065 14.2038C295.065 14.2038 296.118 10.6706 293.856 8.8827C291.593 7.0948 287.139 4.96635 286.114 4.34201C285.089 3.72476 285.152 1.04292 284.127 0.56047C283.102 0.0780224 279.85 -0.539227 279.864 0.837168C279.878 2.21356 281.575 2.83081 282.162 3.65381C282.756 4.47681 282.374 5.9951 282.94 6.20085C283.505 6.4066 281.009 5.7184 279.857 4.54776C278.705 3.37711 277.68 2.83081 276.103 2.55411C274.526 2.27742 272.745 1.52537 272.059 2.55411C271.373 3.58286 272.844 5.57651 273.756 5.78935C274.668 5.9951 275.488 7.30055 275.007 7.44245C274.526 7.57725 273.367 8.26545 271.55 7.2367C269.733 6.20795 268.828 4.68966 266.262 4.6258C263.702 4.55485 261.779 6.137 262.189 7.03095C262.599 7.92489 264.713 7.79009 266.262 7.99584C267.81 8.20159 270.906 9.91854 270.906 9.91854C270.906 9.91854 268.969 9.91854 267.195 9.30129C265.413 8.68404 262.331 9.09554 261.645 9.98949C260.959 10.8834 260.62 12.7423 262.126 13.2247C263.632 13.7072 265.958 15.4951 267.195 15.0836C268.432 14.6721 268.906 16.2542 267.47 16.3181C266.028 16.389 263.702 15.8782 262.055 15.786C260.408 15.7008 256.576 17.4887 257.261 18.6523C257.947 19.8229 259.658 19.752 261.645 19.8868C263.631 20.0216 265.003 20.2983 265.76 20.7807C266.516 21.2632 265.555 22.0152 264.317 22.1571C263.087 22.2919 259.248 22.2281 259.142 23.4626C259.036 24.6971 261.44 25.4562 263.837 24.9099C266.233 24.3565 267.739 24.4274 267.951 25.2504C268.163 26.0734 268.559 31.6145 270.383 31.5648Z" fill="#785ABA"/>
<path d="M271.557 39.2202L270.157 28.6134C270.157 28.6134 267.414 24.3565 263.78 26.7688C260.146 29.1739 268.1 39.5749 271.557 39.2202Z" fill="#BE4C45"/>
<path d="M291.876 38.9931L293.276 28.3864C293.276 28.3864 296.019 24.1295 299.653 26.5417C303.287 28.9539 295.333 39.3479 291.876 38.9931Z" fill="#BE4C45"/>
<path d="M277.142 45.8822C277.142 45.8822 277.552 48.5144 277.418 51.2317C278.761 52.005 280.324 52.4946 281.667 52.3456C283.279 52.1611 285.053 51.0047 286.383 49.6992C286.199 48.5924 286.079 47.2515 286.192 45.8822C280.705 47.6701 277.142 45.8822 277.142 45.8822Z" fill="#BE4C45"/>
<path d="M286.573 45.7687C286.446 45.8042 286.319 45.8396 286.185 45.8822C286.185 45.8822 286.333 45.8538 286.573 45.7687Z" fill="#BE4C45"/>
<path d="M290.879 30.7631C291.134 31.3591 290.497 32.1963 289.458 32.6432C288.419 33.0831 287.379 32.9625 287.125 32.3665C286.87 31.7706 287.507 30.9334 288.546 30.4864C289.585 30.0465 290.632 30.1671 290.879 30.7631Z" fill="#BC4681"/>
<path d="M277.312 32.4942C277.163 33.1257 276.159 33.4237 275.063 33.1683C273.968 32.9128 273.197 32.1892 273.345 31.5648C273.494 30.9334 274.498 30.6354 275.594 30.8908C276.69 31.1462 277.46 31.8628 277.312 32.4942Z" fill="#BC4681"/>
<path d="M295.51 81.4627C295.51 82.3708 294.775 83.1158 293.863 83.1158H274.357C273.452 83.1158 272.709 82.3779 272.709 81.4627V71.459C272.709 70.5509 273.445 69.8059 274.357 69.8059H293.863C294.768 69.8059 295.51 70.5438 295.51 71.459V81.4627Z" fill="#615598"/>
<path d="M277.963 72.2039C277.963 72.7006 277.567 73.0979 277.072 73.0979H275.248C274.753 73.0979 274.357 72.7006 274.357 72.2039C274.357 71.7073 274.753 71.31 275.248 71.31H277.072C277.567 71.31 277.963 71.7073 277.963 72.2039Z" fill="#FFDF97"/>
<path d="M275.474 72.6864C275.739 72.6864 275.955 72.4704 275.955 72.2039C275.955 71.9375 275.739 71.7215 275.474 71.7215C275.208 71.7215 274.993 71.9375 274.993 72.2039C274.993 72.4704 275.208 72.6864 275.474 72.6864Z" fill="#615598"/>
<path d="M276.845 72.6864C277.111 72.6864 277.326 72.4704 277.326 72.2039C277.326 71.9375 277.111 71.7215 276.845 71.7215C276.58 71.7215 276.365 71.9375 276.365 72.2039C276.365 72.4704 276.58 72.6864 276.845 72.6864Z" fill="#615598"/>
<path d="M259.15 62.179C259.15 62.179 257.474 64.2436 255.692 69.3306C253.911 74.4176 246.346 98.1072 247.385 100.115C248.424 102.13 256.512 99.8596 259.15 95.2551C261.787 90.6505 266.269 81.5195 266.269 81.5195L259.15 62.179Z" fill="#8570C6"/>
<path d="M259.149 90.0971C259.149 90.0971 258.294 89.4586 253.698 90.0971C249.11 90.7357 244.861 95.8014 244.31 99.59C243.758 103.372 244.925 110.317 249.379 109.835C253.84 109.352 259.149 90.0971 259.149 90.0971Z" fill="#5F5ED2"/>
<path d="M260.698 87.8977C260.698 87.8977 264.438 84.8753 265.067 83.1158C265.696 81.3634 267.888 76.8582 268.715 76.4609C269.535 76.0636 274.272 76.2693 275.332 77.0285C276.393 77.7876 276.937 80.2637 276.393 80.81C275.842 81.3634 277.644 83.2861 276.612 83.8324C275.58 84.3787 273.77 83.1087 273.77 83.1087C273.77 83.1087 275.637 85.3791 275.332 86.5852C275.028 87.7913 274.47 87.4791 272.724 87.0676C270.977 86.6561 269.733 86.3227 269.401 87.4508C269.068 88.5788 267.69 91.6083 264.395 91.1259C264.395 91.1259 260.351 97.4545 259.156 100.683C257.955 103.918 255.558 108.04 250.142 108.246C244.727 108.451 247.54 98.5471 248.495 96.6244C249.456 94.7017 260.698 87.8977 260.698 87.8977Z" fill="#D8847D"/>
<path d="M272.413 78.8873C272.413 78.8873 275.396 79.4762 276.301 81.2996" stroke="#BE4C45" stroke-miterlimit="10" stroke-linecap="round" stroke-linejoin="round"/>
<path d="M303.04 55.9852C303.04 55.9852 310.718 68.2238 313.729 72.7645C316.741 77.3052 326.477 87.5501 320.927 91.3955C315.377 95.248 301.223 77.0781 301.223 77.0781L303.04 55.9852Z" fill="#8570C6"/>
<path d="M312.429 80.881C312.429 80.881 319.831 79.0221 322.602 80.881C325.374 82.7398 327.912 90.161 326.682 92.6371C325.452 95.1132 322.843 98.689 319.28 95.8723C315.716 93.0557 312.429 80.881 312.429 80.881Z" fill="#5F5ED2"/>
<path d="M308.731 78.639C308.731 78.639 304.616 76.1487 303.754 74.4956C302.891 72.8425 300.113 68.6779 299.243 68.4012C298.373 68.1245 293.714 68.9687 292.767 69.8627C291.82 70.7566 291.615 73.2824 292.23 73.7506C292.845 74.2189 291.325 76.3757 292.428 76.7801C293.53 77.1845 295.142 75.6804 295.142 75.6804C295.142 75.6804 293.594 78.1849 294.061 79.3343C294.527 80.4836 295.036 80.1005 296.712 79.4549C298.388 78.8093 299.575 78.3126 300.056 79.3768C300.537 80.4482 302.318 83.2648 305.507 82.3354C305.507 82.3354 309.332 86.3298 311.806 89.8701C315.999 95.8652 316.366 96.6669 321.754 96.1348C327.148 95.6027 323.026 86.1737 321.81 84.4C320.594 82.6334 308.731 78.639 308.731 78.639Z" fill="#D8847D"/>
<path d="M295.899 71.3101C295.899 71.3101 293.022 72.3033 292.371 74.226" stroke="#BE4C45" stroke-miterlimit="10" stroke-linecap="round" stroke-linejoin="round"/>
<path d="M313.885 25.2363C308.3 25.2363 303.775 29.777 303.775 35.3819C303.775 37.1343 304.22 38.7803 304.998 40.2134C305.175 40.5398 305.373 40.852 305.585 41.157C304.927 42.2993 303.322 44.6335 300.869 45.2649C300.869 45.2649 306.638 47.2657 309.685 44.598C310.965 45.1869 312.386 45.5204 313.885 45.5204C317.724 45.5204 321.061 43.3706 322.772 40.2134C323.55 38.7732 323.995 37.1272 323.995 35.3819C323.995 29.777 319.463 25.2363 313.885 25.2363Z" fill="#FFFEDC"/>
<path d="M313.885 29.5215L315.78 33.374L320.014 33.9913L316.953 36.9924L317.674 41.228L313.885 39.2273L310.095 41.228L310.816 36.9924L307.748 33.9913L311.99 33.374L313.885 29.5215Z" fill="#FFDF24"/>
<path d="M204.937 162.067C204.937 162.067 189.065 175.072 187.057 176.583C185.049 178.094 184.045 180.109 185.452 182.231C186.859 184.345 189.673 190.595 190.875 193.724C192.084 196.853 198.008 218.223 197.803 219.031C197.605 219.84 194.184 223.366 190.267 222.664C190.267 222.664 168.166 179.818 167.565 176.995C166.964 174.171 167.466 173.362 170.577 169.737C173.688 166.104 190.267 147.459 190.267 147.459C190.267 147.459 208.408 154.291 204.937 162.067Z" fill="#FFBE65"/>
<path d="M203.778 156.058C203.778 156.058 203.269 156.519 202.47 157.243" stroke="#E5773D" stroke-linecap="round" stroke-linejoin="round"/>
<path d="M200.37 159.144C197.803 161.464 194.445 164.501 192.784 165.998C189.871 168.616 184.448 174.767 183.239 175.171C182.03 175.576 179.923 175.675 181.026 176.278C182.129 176.881 183.741 177.69 182.836 178.094C182.631 178.186 182.419 178.293 182.221 178.421" stroke="#E5773D" stroke-linecap="round" stroke-linejoin="round" stroke-dasharray="4.99 4.99"/>
<path d="M181.316 179.464C181.281 179.669 181.344 179.889 181.528 180.109C182.228 180.918 182.228 180.918 182.228 180.918C182.228 180.918 182.475 181.542 182.857 182.571" stroke="#E5773D" stroke-linecap="round" stroke-linejoin="round"/>
<path d="M183.791 185.061C184.837 187.928 186.187 191.766 187.057 194.831C188.287 199.145 193.264 211.816 195.541 217.549" stroke="#E5773D" stroke-linecap="round" stroke-linejoin="round" stroke-dasharray="4.68 4.68"/>
<path d="M196.029 218.783C196.439 219.819 196.686 220.429 196.686 220.429" stroke="#E5773D" stroke-linecap="round" stroke-linejoin="round"/>
<path d="M195.88 218.939C196.481 218.364 195.188 216.087 196.022 215.378C196.856 214.668 199.599 217.208 201.367 220.06C203.134 222.919 204.598 231.355 204.697 233.157C204.789 234.959 205.821 235.683 195.831 241.451C185.848 247.219 180.327 246.034 180.327 246.034C180.327 246.034 177.449 240.401 177.64 238.826C177.831 237.251 179.054 236.016 181.239 234.846C183.423 233.675 188.309 225.019 188.309 225.019C188.309 225.019 185.82 220.032 186.612 219.031C187.411 218.024 192.034 214.994 193.809 215.072L195.88 218.939Z" fill="#F6EEFF"/>
<path d="M178.891 236.499C178.891 236.499 177.88 238.315 181.147 237.691C184.413 237.066 192.572 233.654 198.228 229.354" stroke="#A27FCD" stroke-miterlimit="10" stroke-linecap="round" stroke-linejoin="round"/>
<path d="M179.344 243.984C179.344 243.984 185.233 243.948 190.125 241.706C195.018 239.464 204.605 232.214 204.605 232.214" stroke="#A27FCD" stroke-miterlimit="10" stroke-linecap="round" stroke-linejoin="round"/>
<path d="M201.926 221.153C201.926 221.153 200.264 222.054 199.946 225.849C199.6 229.901 201.954 234.158 201.954 234.158" stroke="#A27FCD" stroke-miterlimit="10" stroke-linecap="round" stroke-linejoin="round"/>
<path d="M195.88 218.939C195.88 218.939 196.248 223.678 195.746 224.963C195.244 226.254 191.101 231.32 191.101 231.32" stroke="#A27FCD" stroke-miterlimit="10" stroke-linecap="round" stroke-linejoin="round"/>
<path d="M182.568 233.675C182.568 233.675 190.55 228.836 193.137 232.668" stroke="#A27FCD" stroke-miterlimit="10" stroke-linecap="round" stroke-linejoin="round"/>
<path d="M185.141 230.206C185.141 230.206 189.532 226.949 193.653 228.091" stroke="#624297" stroke-width="2" stroke-miterlimit="10" stroke-linecap="round" stroke-linejoin="round"/>
<path d="M187.573 225.92C187.573 225.92 192.162 222.323 195.852 224.615" stroke="#624297" stroke-width="2" stroke-miterlimit="10" stroke-linecap="round" stroke-linejoin="round"/>
<path d="M191.009 223.416C191.009 223.416 185.692 223.664 185.551 221.5C185.41 219.344 189.326 221.422 191.009 223.416ZM191.009 223.416C191.009 223.416 190.387 217.662 193.264 217.031C196.142 216.399 193.625 222.472 191.009 223.416Z" stroke="#624297" stroke-width="2" stroke-miterlimit="10" stroke-linecap="round" stroke-linejoin="round"/>
<path d="M222.266 136.157C222.266 136.157 227.165 144.529 227.872 148.864C228.572 153.199 226.642 162.471 222.266 172.347C217.896 182.231 210.961 199.968 210.763 201.379C210.565 202.791 211.972 206.523 210.763 209.241C209.554 211.965 206.04 258.741 206.04 258.741C206.04 258.741 201.02 262.069 196.298 257.429C196.298 257.429 195.492 218.01 195.089 210.149C194.686 202.288 194.99 198.052 196.799 190.588C198.609 183.124 203.028 163.167 202.83 162.564C202.632 161.961 190.274 147.445 190.274 147.445L194.021 135.646L222.266 136.157Z" fill="#FFD199"/>
<path d="M202.526 135.802C202.526 135.802 200.179 150.176 200.752 153.142C201.324 156.114 204.223 162.649 204.223 162.649" stroke="#E5773D" stroke-miterlimit="10" stroke-linecap="round" stroke-linejoin="round"/>
<path d="M198.807 135.653C198.807 135.653 196.517 147.849 196.7 149.233C196.884 150.616 201.098 154.518 201.098 154.518" stroke="#E5773D" stroke-miterlimit="10" stroke-linecap="round" stroke-linejoin="round"/>
<path d="M218.9 136.093C218.9 136.093 219.098 136.746 219.409 137.789" stroke="#E5773D" stroke-linecap="round" stroke-linejoin="round"/>
<path d="M220.208 140.527C221.523 145.089 223.347 151.687 223.22 152.787C223.022 154.504 221.113 155.306 221.615 155.909C222.117 156.512 222.421 158.527 221.714 159.236C221.014 159.939 207.037 200.372 206.69 201.784C206.344 203.196 207.447 203.501 207.348 204.203C207.249 204.906 205.941 205.714 205.842 206.821C205.743 207.928 207.553 210.553 207.15 212.469C206.811 214.072 205.121 245.97 204.583 256.293" stroke="#E5773D" stroke-linecap="round" stroke-linejoin="round" stroke-dasharray="5.02 5.02"/>
<path d="M204.506 257.712C204.449 258.84 204.414 259.479 204.414 259.479" stroke="#E5773D" stroke-linecap="round" stroke-linejoin="round"/>
<path d="M213.817 137.668C213.817 137.668 215.987 149.062 216.786 148.856C217.592 148.658 222.266 148.005 222.266 148.005" stroke="#E5773D" stroke-miterlimit="10" stroke-linecap="round" stroke-linejoin="round"/>
<path d="M204.696 258.351C205.502 258.152 205.502 255.527 206.57 255.328C207.645 255.13 208.783 258.691 208.917 262.047C209.052 265.41 206.174 273.47 205.368 275.088C204.562 276.698 205.099 277.84 193.582 277.911C182.065 277.975 177.845 274.215 177.845 274.215C177.845 274.215 178.113 267.886 179.054 266.616C179.994 265.346 181.662 264.871 184.144 264.942C186.626 265.006 195.131 259.905 195.131 259.905C195.131 259.905 195.421 254.335 196.601 253.853C197.789 253.37 203.304 253.03 204.81 253.98L204.696 258.351Z" fill="#F6EEFF"/>
<path d="M181.288 265.204C181.288 265.204 179.513 266.283 182.666 267.361C185.812 268.44 194.586 269.511 201.621 268.575" stroke="#A27FCD" stroke-miterlimit="10" stroke-linecap="round" stroke-linejoin="round"/>
<path d="M177.993 271.93C177.993 271.93 183.133 274.818 188.492 275.286C193.851 275.754 205.757 274.208 205.757 274.208" stroke="#A27FCD" stroke-miterlimit="10" stroke-linecap="round" stroke-linejoin="round"/>
<path d="M208.861 263.268C208.861 263.268 206.973 263.232 204.831 266.368C202.54 269.717 202.491 274.591 202.491 274.591" stroke="#A27FCD" stroke-miterlimit="10" stroke-linecap="round" stroke-linejoin="round"/>
<path d="M204.696 258.351C204.696 258.351 202.688 262.65 201.614 263.523C200.539 264.396 194.445 266.751 194.445 266.751" stroke="#A27FCD" stroke-miterlimit="10" stroke-linecap="round" stroke-linejoin="round"/>
<path d="M185.862 264.566C185.862 264.566 195.188 264.311 195.555 268.929" stroke="#A27FCD" stroke-miterlimit="10" stroke-linecap="round" stroke-linejoin="round"/>
<path d="M189.814 262.828C189.814 262.828 195.237 262.175 198.256 265.204" stroke="#624297" stroke-width="2" stroke-miterlimit="10" stroke-linecap="round" stroke-linejoin="round"/>
<path d="M194.035 260.302C194.035 260.302 199.79 259.443 201.876 263.268" stroke="#624297" stroke-width="2" stroke-miterlimit="10" stroke-linecap="round" stroke-linejoin="round"/>
<path d="M198.256 259.834C198.256 259.834 193.512 257.414 194.445 255.463C195.385 253.512 197.775 257.258 198.256 259.834ZM198.256 259.834C198.256 259.834 200.539 254.527 203.353 255.399C206.167 256.272 200.992 260.302 198.256 259.834Z" stroke="#624297" stroke-width="2" stroke-miterlimit="10" stroke-linecap="round" stroke-linejoin="round"/>
<path d="M191.42 111.58C191.42 111.58 183.784 124.621 176.481 124.684C169.177 124.748 176.417 113.262 178.291 109.629C180.164 105.997 187.998 91.58 189.907 92.3391C191.823 93.0983 193.427 102.712 191.42 111.58Z" fill="#A34C55"/>
<path d="M189.256 92.8429C190.536 91.9134 188.945 88.0822 189.383 87.1386C189.822 86.195 190.889 86.6987 190.196 85.5636C189.503 84.4284 187.75 84.4923 186.93 85.2514C186.117 86.0106 185.735 86.0105 185.424 84.7477C185.113 83.4848 184.357 81.5337 183.48 80.1502C182.603 78.7667 181.217 77.3123 180.715 77.816C180.214 78.3198 180.97 80.5901 180.97 80.5901C179.146 78.5113 176.134 76.7447 175.385 77.3123C174.628 77.8799 175.696 79.4549 175.448 79.7671C175.194 80.0793 174.381 81.4699 175.448 82.2219C176.516 82.9811 179.966 87.4508 179.966 87.4508C179.966 87.4508 177.456 86.1241 175.632 86.1241C173.808 86.1241 175.505 88.2028 177.329 89.0826C179.153 89.9624 182.73 94.4392 182.73 94.4392C182.73 94.4392 180.913 98.4123 178.701 103.513C176.488 108.615 174.013 113.588 173.342 116.213C172.67 118.831 173.009 125.287 176.488 124.684C179.973 124.081 184.724 120.179 185.459 113.326C186.195 106.472 186.4 95.8369 187.064 94.9997C187.736 94.1767 188.606 93.3182 189.256 92.8429Z" fill="#BF5435"/>
<path d="M182.723 94.4463C182.723 94.4463 184.356 95.5034 186.951 95.0068C186.951 95.0068 187.799 94.5244 187.538 98.1782C187.269 101.832 186.866 103.109 183.72 102.839C180.574 102.57 179.57 99.8171 179.902 98.9444C180.235 98.0718 181.606 93.9851 182.723 94.4463Z" fill="#FFA4C2"/>
<path d="M175.441 79.76C175.441 79.76 179.966 81.9381 181.741 84.9676" stroke="#A34C55" stroke-miterlimit="10" stroke-linecap="round" stroke-linejoin="round"/>
<path d="M201.869 87.3656C201.869 87.3656 196.651 88.366 194.318 89.2741C191.978 90.1823 188.966 91.7928 189.171 94.5172C189.369 97.2416 190.734 101.676 190.302 103.187C189.871 104.698 188.57 110.246 189.673 113.07C190.776 115.894 192.939 117.81 194.318 119.122C195.697 120.435 190.924 139.186 190.924 139.186C190.924 139.186 195.096 145.132 203.735 145.635C212.375 146.139 224.231 137.065 224.231 137.065C224.231 137.065 218.306 124.06 218.405 119.321C218.504 114.581 221.622 100.264 221.014 96.8372C220.406 93.4104 211.555 87.1741 201.869 87.3656Z" fill="#FFA4C2"/>
<path d="M219.19 93.9496C219.19 93.9496 219.098 94.6166 218.95 95.7021" stroke="#565095" stroke-linecap="round" stroke-linejoin="round"/>
<path d="M218.582 98.3342C217.833 103.691 216.624 112.304 216.285 114.283C215.783 117.206 213.372 118.42 213.57 118.923C213.768 119.427 216.143 119.931 215.761 120.74C215.479 121.336 219.162 130.722 221.106 135.589" stroke="#565095" stroke-linecap="round" stroke-linejoin="round" stroke-dasharray="4.67 4.67"/>
<path d="M221.608 136.809C222.018 137.824 222.273 138.455 222.273 138.455" stroke="#565095" stroke-linecap="round" stroke-linejoin="round"/>
<path d="M207.348 98.1498C209.158 95.8298 209.554 88.5008 209.554 88.4937C207.157 87.7559 204.541 87.316 201.862 87.3728C201.862 87.3728 197.81 88.1532 195.251 88.9549C195.251 88.962 192.784 97.5467 197.499 99.8667C202.222 102.18 205.538 100.463 207.348 98.1498Z" fill="#565095"/>
<path d="M205.043 140.69C198.92 141.698 191.653 136.221 191.653 136.221C191.228 138.001 190.924 139.179 190.924 139.179C190.924 139.179 195.096 145.125 203.735 145.628C212.375 146.132 224.231 137.058 224.231 137.058C224.231 137.058 223.524 135.504 222.605 133.276C222.598 133.283 211.166 139.683 205.043 140.69Z" fill="#565095"/>
<path d="M202.59 119.924C202.59 119.924 193.583 114.681 194.891 110.246C196.198 105.812 200.518 112.063 200.518 112.063C200.518 112.063 201.826 106.919 205.439 107.529C209.052 108.125 206.068 116.696 202.59 119.924Z" fill="#E5618A"/>
<path d="M209.928 111.829C209.794 111.346 209.122 111.346 208.84 111.346C208.38 111.346 207.723 111.417 206.945 111.545C206.895 111.822 206.832 112.105 206.761 112.389C207.609 112.24 208.309 112.155 208.79 112.155C207.878 112.694 205.46 113.666 201.932 114.667C198.92 115.518 196.064 116.093 194.777 116.107C195.166 115.88 195.831 115.575 196.722 115.22C196.531 115.007 196.354 114.787 196.184 114.567C196.107 114.596 196.029 114.631 195.958 114.659C193.851 115.532 193.512 115.986 193.632 116.433C193.766 116.916 194.438 116.916 194.721 116.916C196.064 116.916 198.977 116.341 202.144 115.447C204.23 114.858 206.167 114.205 207.602 113.609C209.709 112.73 210.056 112.276 209.928 111.829Z" fill="white"/>
<path d="M217.917 93.7084C214.573 94.0419 213.576 99.5546 214.884 104.897C216.192 110.239 227.844 124.862 231.159 123.954C234.475 123.046 232.764 115.085 229.152 108.324C225.532 101.569 221.954 93.304 217.917 93.7084Z" fill="#A34C55"/>
<path d="M226.437 92.4952C226.111 93.0344 226.281 93.7439 226.818 94.0703L232.99 97.8234C233.528 98.1498 234.235 97.9795 234.56 97.4403L237.232 84.9889C237.232 84.9889 237.388 83.7402 236.851 83.4138L231.492 77.142C230.954 76.8157 230.247 76.9859 229.922 77.5251L226.437 92.4952Z" fill="#615598"/>
<path d="M227.659 93.2331C227.44 92.7648 227.518 92.6371 227.787 91.6367C228.048 90.6789 230.827 78.1069 231.074 76.9788C231.216 77.0001 231.357 77.0498 231.491 77.1278L236.85 83.3996C237.388 83.726 237.232 84.9747 237.232 84.9747L234.56 97.4261C234.56 97.4332 227.879 93.7013 227.659 93.2331Z" fill="#8070C7"/>
<path d="M234.744 96.5889C232.248 96.8869 230.106 93.8858 228.699 92.8642C227.292 91.8425 226.034 91.9205 226.034 91.9205C224.528 91.0337 226.91 90.4661 226.91 90.4661C226.034 89.2955 227.469 88.0822 227.469 88.0822C226.571 86.9967 227.886 86.2944 229.166 85.3507C230.445 84.4071 232.206 84.5987 233.132 86.0035C233.655 86.791 235.02 88.6782 236.123 90.1752C236.978 91.3459 237.671 92.2824 237.671 92.2824C237.671 92.2824 239.049 93.4175 238.342 96.6102C237.643 99.7958 236.236 118.852 234.928 121.577C233.62 124.301 227.893 125.713 226.79 120.364C225.687 115.021 229.102 110.481 230.304 107.16C231.513 103.833 234.744 96.5889 234.744 96.5889Z" fill="#BF5435"/>
<path d="M234.744 96.5889C234.744 96.5889 237.862 97.3409 238.547 94.8507C238.547 94.8507 239.162 94.3682 238.965 96.6953C238.767 99.0224 238.597 102.974 237.508 103.251C236.419 103.528 232.531 103.123 232.397 101.108C232.389 101.101 233.733 96.4825 234.744 96.5889Z" fill="#FFA4C2"/>
<path d="M192.876 49.3019C191.257 46.5988 187.163 48.1171 186.308 50.5861C184.894 50.1533 183.388 50.6854 182.603 52.5088C181.79 54.3747 182.412 55.8646 183.656 56.7657C183.819 57.0424 184.01 57.3049 184.243 57.539C182.652 60.8452 185.615 65.4426 189.185 64.2933C190.875 66.7055 196.587 62.9098 196.941 59.7242C198.411 58.8161 199.408 56.8366 198.327 55.2403C200.165 52.4591 196.262 47.3508 192.876 49.3019Z" fill="#4858A8"/>
<path d="M219.621 54.0768C220.562 52.7358 220.745 51.0969 219.869 49.3871C219.063 47.8191 217.585 47.3721 216.164 47.663C215.323 44.7542 210.317 45.0805 208.925 47.2019C205.545 46.5704 202.781 50.0114 204.902 53.0764C204.343 54.1051 204.265 55.3183 204.937 56.4677C205.276 57.0495 205.849 57.5177 206.485 57.7519C207.199 60.0293 210.565 61.6256 212.537 59.8377C214.552 61.2567 217.677 61.6044 219.438 59.7242C220.979 58.0924 221.127 55.4319 219.621 54.0768Z" fill="#4858A8"/>
<path d="M205.446 56.2619C210.897 56.3896 215.591 60.4621 216.114 67.1738C216.638 73.8926 216.949 80.4978 212.558 82.5979C208.168 84.698 206.386 84.173 206.386 84.173L207.121 90.7853C207.121 90.7853 206.075 98.3413 201.473 98.4477C196.87 98.5542 197.499 89.7353 197.499 89.7353C197.499 89.7353 198.171 82.5979 197.471 79.3485C196.771 76.092 192.275 69.9053 194.883 63.6051C197.492 57.3049 203.7 56.2265 205.446 56.2619Z" fill="#BF5435"/>
<path d="M208.479 64.0308C208.479 64.0308 208.267 70.5367 211.406 71.8989C211.406 71.8989 209.936 73.5804 208.472 73.999" stroke="#873829" stroke-width="1.5" stroke-miterlimit="10" stroke-linecap="round" stroke-linejoin="round"/>
<path d="M203.876 75.3612C203.876 75.3612 206.443 79.1215 211.406 76.8298" stroke="#873829" stroke-width="1.5" stroke-miterlimit="10" stroke-linecap="round" stroke-linejoin="round"/>
<path d="M204.767 70.0117C205.259 70.0117 205.658 69.6115 205.658 69.1178C205.658 68.624 205.259 68.2238 204.767 68.2238C204.275 68.2238 203.876 68.624 203.876 69.1178C203.876 69.6115 204.275 70.0117 204.767 70.0117Z" fill="#873829"/>
<path d="M212.29 69.1249C212.782 69.1249 213.181 68.7246 213.181 68.2309C213.181 67.7372 212.782 67.337 212.29 67.337C211.798 67.337 211.399 67.7372 211.399 68.2309C211.399 68.7246 211.798 69.1249 212.29 69.1249Z" fill="#873829"/>
<path d="M194.07 68.2309C194.07 68.2309 196.552 70.5368 198.121 68.2309C199.691 65.9251 200.002 61.725 201.154 61.725C202.307 61.725 211.611 64.6623 214.227 64.0308C216.843 63.3994 218.723 61.8243 216.843 60.7743C216.843 60.7743 220.604 60.8807 219.876 57.5249C219.14 54.169 208.472 53.5376 208.472 53.5376C208.472 53.5376 211.194 49.9689 209.207 49.3374C207.22 48.706 194.777 55.1055 193.208 60.8807C191.638 66.6559 194.07 68.2309 194.07 68.2309Z" fill="#5A66B9"/>
<path d="M197.393 75.3612L196.241 69.1178C196.241 69.1178 194.671 65.6059 191.115 66.3366C187.559 67.0745 192.374 77.5677 197.393 75.3612Z" fill="#A34C55"/>
<path d="M206.945 89.2316L206.386 84.173C202.307 83.123 197.471 79.3485 197.471 79.3485C197.782 80.7959 197.825 83.0023 197.775 85.0173C200.264 87.4579 204.994 89.2245 206.945 89.2316Z" fill="#A34C55"/>
<path d="M205.241 71.4662C205.241 72.0976 204.35 72.6084 203.247 72.6084C202.144 72.6084 201.253 72.0976 201.253 71.4662C201.253 70.8347 202.144 70.3239 203.247 70.3239C204.343 70.3239 205.241 70.8347 205.241 71.4662Z" fill="#9B264A"/>
<path d="M216.164 69.5364C216.411 70.1182 215.789 70.9412 214.778 71.374C213.767 71.8067 212.742 71.6861 212.502 71.1043C212.261 70.5226 212.876 69.6996 213.887 69.2668C214.891 68.834 215.917 68.9546 216.164 69.5364Z" fill="#9B264A"/>
<path d="M233.761 50.5506C228.176 50.5506 223.651 55.0913 223.651 60.6962C223.651 61.9591 223.892 63.1581 224.309 64.272C221.976 66.8119 221.99 71.4874 221.99 71.4874C223.312 69.4725 225.829 68.6779 227.179 68.387C228.947 69.9124 231.244 70.8418 233.761 70.8418C239.347 70.8418 243.871 66.3011 243.871 60.6962C243.871 55.0913 239.347 50.5506 233.761 50.5506Z" fill="#FFFEDC"/>
<path d="M238.229 60.6962C238.229 63.1723 236.229 65.1801 233.761 65.1801C231.294 65.1801 229.293 63.1723 229.293 60.6962C229.293 58.2201 231.294 56.2123 233.761 56.2123C236.229 56.2123 238.229 58.2201 238.229 60.6962Z" fill="#FFDF24"/>
<path d="M231.64 61.3276C231.64 61.3276 233.846 63.3142 235.882 61.3276" stroke="#5E65B5" stroke-miterlimit="10" stroke-linecap="round" stroke-linejoin="round"/>
<path d="M232.086 60.0648C232.332 60.0648 232.531 59.8647 232.531 59.6178C232.531 59.371 232.332 59.1708 232.086 59.1708C231.84 59.1708 231.64 59.371 231.64 59.6178C231.64 59.8647 231.84 60.0648 232.086 60.0648Z" fill="#5E65B5"/>
<path d="M235.444 60.0648C235.69 60.0648 235.889 59.8647 235.889 59.6178C235.889 59.371 235.69 59.1708 235.444 59.1708C235.198 59.1708 234.999 59.371 234.999 59.6178C234.999 59.8647 235.198 60.0648 235.444 60.0648Z" fill="#5E65B5"/>
<path d="M122.833 162.691C122.833 162.691 130.872 182.954 131.996 187.296C133.12 191.638 132.929 199.549 131.296 204.856C129.663 210.163 129.953 242.494 129.953 242.494C129.953 242.494 134.761 245.58 139.957 242.011C139.957 242.011 145.535 213.065 147.076 206.403C148.618 199.741 150.442 194.05 149.289 185.267C148.137 176.484 140.537 143.379 140.537 143.379C140.537 143.379 127.068 137.115 122.833 162.691Z" fill="#9AA3F1"/>
<path d="M124.156 155.611C124.156 155.611 136.203 184.82 136.974 185.459C137.744 186.104 139.795 188.545 138.769 189.063C137.744 189.581 136.203 191.12 136.846 191.894C137.49 192.667 137.228 196.612 136.974 197.215C136.719 197.818 132.124 206.374 132.626 214.249C133.128 222.132 132.626 243.508 132.626 243.508" stroke="#6D79E1" stroke-miterlimit="10" stroke-linecap="round" stroke-linejoin="round" stroke-dasharray="5 5"/>
<path d="M126.757 253.81C126.757 253.81 124.587 253.165 124.714 256.059C124.834 258.954 125.414 260.642 127.528 260.572C129.642 260.501 134.449 260.068 135.99 261.253C137.532 262.43 137.815 263.977 142.24 264.268C146.666 264.559 155.221 263.672 156.182 262.863C157.144 262.054 157.335 259.351 155.511 258.479C153.68 257.606 126.757 253.81 126.757 253.81Z" fill="#5A448E"/>
<path d="M134.068 243.977C134.718 243.792 134.357 241.877 135.319 241.302C136.28 240.72 139.165 240.337 140.225 243.232C141.286 246.126 147.246 252.029 147.246 252.029C147.246 252.029 151.474 253.15 154.365 253.647C157.257 254.144 157.25 258.869 155.228 260.125C153.206 261.38 143.499 261.473 140.416 260.99C137.341 260.508 137.631 257.904 134.746 257.712C131.862 257.521 126.284 258.379 126.093 254.186C125.902 249.993 129.324 241.025 130.518 241.6C131.699 242.168 132.816 244.339 134.068 243.977Z" fill="#7954B5"/>
<path d="M138.196 248.943C138.196 248.943 140.218 245.907 143.082 247.091" stroke="#FEE9B0" stroke-width="2" stroke-miterlimit="10" stroke-linecap="round" stroke-linejoin="round"/>
<path d="M141.01 251.263C141.01 251.263 143.881 248.29 145.641 250.206" stroke="#FEE9B0" stroke-width="2" stroke-miterlimit="10" stroke-linecap="round" stroke-linejoin="round"/>
<path d="M139.603 245.736C139.603 245.736 132.427 243.516 134.35 241.394C136.28 239.273 139.603 245.736 139.603 245.736ZM139.603 245.736C139.603 245.736 139.547 238.691 142.53 240.138C145.507 241.586 139.603 245.736 139.603 245.736Z" stroke="#FEE9B0" stroke-width="2" stroke-miterlimit="10" stroke-linecap="round" stroke-linejoin="round"/>
<path d="M110.814 120.13C110.814 120.13 107.442 131.134 106.58 135.476C105.717 139.818 107.35 146.863 106.968 149.566C106.968 149.566 104.565 194.249 104.275 198.201C103.985 202.16 96.9644 244.331 96.9644 244.331C96.9644 244.331 101.39 249.83 107.251 245.296C107.251 245.296 120.903 201.294 122.063 196.37C123.222 191.447 127.061 154.681 128.023 153.042C128.984 151.403 140.522 143.386 140.522 143.386L139.752 123.975L110.814 120.13Z" fill="#BAC2FE"/>
<path d="M133.573 123.152C133.573 123.152 133.127 134.418 132.548 140.208C131.968 145.997 131.296 149.836 129.663 151.439" stroke="#6D79E1" stroke-miterlimit="10" stroke-linecap="round" stroke-linejoin="round"/>
<path d="M127.125 122.293C127.125 122.293 125.782 136.696 126.566 137.292C127.351 137.888 132.618 139.42 132.618 139.42" stroke="#6D79E1" stroke-miterlimit="10" stroke-linecap="round" stroke-linejoin="round"/>
<path d="M112.921 120.647C112.921 120.647 109.591 135.547 109.818 139.42C110.044 143.294 111.196 146.955 110.624 147.828C110.044 148.693 109.577 149.828 109.811 151.432C110.044 153.035 108.51 172.333 108.411 180.542C108.312 188.744 107.159 200.904 106.587 205.345C106.007 209.787 98.4067 245.644 98.4067 245.644" stroke="#6D79E1" stroke-miterlimit="10" stroke-linecap="round" stroke-linejoin="round" stroke-dasharray="5 5"/>
<path d="M94.179 256.946C94.179 256.946 93.2669 256.946 93.3659 258.776C93.4649 260.607 93.175 262.154 94.8082 262.395C96.4413 262.636 96.1515 265.765 98.3644 266.226C100.577 266.687 114.378 268.276 117.814 266.226C117.814 266.226 120.72 265.048 117.814 262.395C114.908 259.748 94.179 256.946 94.179 256.946Z" fill="#5A448E"/>
<path d="M98.6542 244.885C99.3895 246.361 100.959 241.614 103.752 241.848C106.544 242.082 107.216 244.112 107.789 246.907C108.368 249.702 110.002 254.534 110.673 254.626C111.345 254.725 116.251 256.364 117.213 257.712C118.174 259.06 117.694 263.409 117.694 263.409C117.694 263.409 106.537 265.339 101.058 263.409C95.5788 261.48 96.6322 259.167 95.3808 259.067C94.1295 258.968 93.9386 257.464 94.4193 251.994C94.9072 246.524 97.0211 241.6 98.6542 244.885Z" fill="#7954B5"/>
<path d="M101.348 250.192C101.348 250.192 106.488 248.482 109.019 251.263" stroke="#FEE9B0" stroke-width="2" stroke-miterlimit="10" stroke-linecap="round" stroke-linejoin="round"/>
<path d="M102.408 253.952C102.408 253.952 106.77 251.54 110.114 253.952" stroke="#FEE9B0" stroke-width="2" stroke-miterlimit="10" stroke-linecap="round" stroke-linejoin="round"/>
<path d="M105.18 249.128C105.18 249.128 96.8653 246.105 100.308 243.977C103.751 241.848 105.18 249.128 105.18 249.128ZM105.18 249.128C105.18 249.128 106.106 243.338 109.012 244.495C111.924 245.658 107.668 249.227 105.18 249.128Z" stroke="#FEE9B0" stroke-width="2" stroke-miterlimit="10" stroke-linecap="round" stroke-linejoin="round"/>
<path d="M144.107 58.0853C144.107 58.0853 139.667 59.0644 138.444 59.7242C136.967 60.5188 135.178 57.5035 133.573 56.7302C131.968 55.9569 126.517 54.7649 128.829 53.5304C131.141 52.2959 134.323 52.5088 135.503 53.0267C136.684 53.5446 138.317 44.6974 139.378 44.6335C140.438 44.5697 146.886 50.9266 146.766 52.2818C146.638 53.6369 145.804 57.8157 144.107 58.0853Z" fill="#EFBBB9"/>
<path d="M140.947 52.0051C140.947 52.8564 140.261 53.5517 139.406 53.5517H123.795C122.947 53.5517 122.254 52.8635 122.254 52.0051V42.1574C122.254 41.3061 122.94 40.6108 123.795 40.6108H139.406C140.254 40.6108 140.947 41.299 140.947 42.1574V52.0051Z" fill="#8070C7"/>
<path d="M137.518 49.9759C137.518 50.8273 136.832 51.5226 135.976 51.5226H125.69C124.841 51.5226 124.148 50.8344 124.148 49.9759V43.8957C124.148 43.0443 124.834 42.349 125.69 42.349H135.976C136.825 42.349 137.518 43.0372 137.518 43.8957V49.9759Z" fill="#99E0FF"/>
<path d="M137.744 67.3441C137.744 67.3441 143.803 68.1174 145.726 68.7914C145.726 68.7914 140.919 60.5898 141.739 58.4684C141.739 58.4684 145.726 53.8355 147.459 53.1615C149.191 52.4875 151.594 54.5095 153.419 55.9569C155.243 57.4042 163.225 65.996 166.017 68.7914C168.803 71.5868 173.038 79.6323 166.689 83.0449C160.34 86.4575 143.761 89.8701 143.761 89.8701C143.761 89.8701 136.875 73.7152 137.744 67.3441Z" fill="#6E66BE"/>
<path d="M151.778 71.452C151.778 71.452 159.859 73.3605 165.048 77.6457" stroke="#BFA1FF" stroke-miterlimit="10" stroke-linecap="round" stroke-linejoin="round"/>
<path d="M146.115 54.0413C146.115 54.0413 152.549 57.7944 155.624 62.4273C158.7 67.0603 162.546 74.3183 163.606 74.5453C164.667 74.7794 164.377 76.4183 162.835 76.7092C161.294 77.0001 162.065 77.5109 162.065 78.8022C162.065 80.0863 160.432 80.2495 158.799 80.7958C157.165 81.3421 142.361 86.3936 142.361 86.3936" stroke="#BFA1FF" stroke-miterlimit="10" stroke-linecap="round" stroke-linejoin="round" stroke-dasharray="5 5"/>
<path d="M110.094 65.996C110.094 65.996 102.253 68.5572 99.899 70.487C97.5447 72.4168 98.2659 76.1558 100.281 79.8806C102.303 83.6054 110.808 100.541 111.006 102.151C111.197 103.762 107.867 124.152 108.44 125.635C109.012 127.118 122.353 134 131.777 132.581C141.202 131.169 143.705 127.629 143.641 126.21C143.577 124.798 142.552 107.295 142.87 100.541C143.188 93.7864 144.928 83.1087 143.641 78.2133C142.354 73.325 137.745 67.344 137.745 67.344C137.745 67.344 127.196 60.3343 110.094 65.996Z" fill="#BFA1FF"/>
<path d="M122.771 91.9205C122.771 91.9205 129.162 89.4728 129.353 89.9268C129.544 90.3738 131.057 97.8376 130.767 97.8376C130.477 97.8376 124.474 101.052 124.474 101.052L122.771 91.9205Z" fill="#6E66BE"/>
<path d="M121.809 95.0777L124.793 94.4959" stroke="#F3CEFD" stroke-miterlimit="10" stroke-linecap="round" stroke-linejoin="round"/>
<path d="M122.283 97.2629L124.793 96.6812" stroke="#F3CEFD" stroke-miterlimit="10" stroke-linecap="round" stroke-linejoin="round"/>
<path d="M126.009 88.7065L127.126 91.7928" stroke="#F3CEFD" stroke-miterlimit="10" stroke-linecap="round" stroke-linejoin="round"/>
<path d="M137.419 74.9355L135.503 83.3641L142.354 82.2715L137.419 74.9355Z" fill="#6E66BE"/>
<path d="M138.444 79.1498L140.947 77.6386" stroke="#F3CEFD" stroke-miterlimit="10" stroke-linecap="round" stroke-linejoin="round"/>
<path d="M138.932 80.4481L141.654 78.795" stroke="#F3CEFD" stroke-miterlimit="10" stroke-linecap="round" stroke-linejoin="round"/>
<path d="M137.745 81.5621L138.445 84.9108" stroke="#F3CEFD" stroke-miterlimit="10" stroke-linecap="round" stroke-linejoin="round"/>
<path d="M122.624 86.8134C123.277 84.029 121.557 81.2409 118.782 80.5859C116.008 79.9308 113.229 81.657 112.576 84.4413C111.924 87.2256 113.644 90.0137 116.418 90.6688C119.193 91.3238 121.971 89.5977 122.624 86.8134Z" fill="#6E66BE"/>
<path d="M111.649 82.1438L114.202 83.9459" stroke="#F3CEFD" stroke-miterlimit="10" stroke-linecap="round" stroke-linejoin="round"/>
<path d="M112.922 80.7958L114.901 83.0449" stroke="#F3CEFD" stroke-miterlimit="10" stroke-linecap="round" stroke-linejoin="round"/>
<path d="M120.367 86.3865L124.149 85.6274" stroke="#F3CEFD" stroke-miterlimit="10" stroke-linecap="round" stroke-linejoin="round"/>
<path d="M130.427 79.3911C130.427 79.3911 133.58 90.0971 133.58 98.2775C133.58 106.458 132.294 132.496 132.294 132.496" stroke="#6E66BE" stroke-miterlimit="10" stroke-linecap="round" stroke-linejoin="round"/>
<path d="M99.2344 71.1823C99.2344 71.1823 111.289 97.5538 112.448 99.4836C113.608 101.413 113.113 102.57 112.929 103.244C112.745 103.918 113.65 104.592 113.919 105.174C114.187 105.755 110.617 127.317 110.617 127.317" stroke="#6E66BE" stroke-miterlimit="10" stroke-linecap="round" stroke-linejoin="round" stroke-dasharray="5 5"/>
<path d="M115.842 129.821C115.842 129.821 115.722 122.059 116.683 121.676C117.645 121.293 121.936 118.299 121.809 114.532L138.091 114.149C138.091 114.149 139.434 119.746 140.947 121.002C142.453 122.258 142.354 128.516 142.354 128.516" stroke="#6E66BE" stroke-miterlimit="10" stroke-linecap="round" stroke-linejoin="round"/>
<path d="M143.641 126.21C143.634 125.976 143.592 125.309 143.542 124.337C140.141 127.075 132.004 129.296 126.009 128.622C120.593 128.019 112.003 124.294 108.517 122.705C108.376 124.244 108.327 125.33 108.447 125.628C109.026 127.111 122.36 133.993 131.785 132.574C141.202 131.169 143.705 127.629 143.641 126.21Z" fill="#6E66BE"/>
<path d="M114.901 65.3717L129.367 62.9736L131.141 80.7958L114.901 65.3717Z" fill="#AFFEFC"/>
<path d="M127.783 106.11C127.783 106.11 130.052 105.436 131.947 103.506C133.842 101.577 134.945 99.065 135.454 99.2565C135.963 99.4552 136.486 102.832 135.454 103.989C134.422 105.145 135.864 105.145 136.634 105.053C137.405 104.954 141.732 105.152 143.365 107.366C144.998 109.587 147.692 113.347 146.349 113.638C145.005 113.929 144.058 112.964 144.058 112.964C144.058 112.964 143.867 114.929 142.319 114.957C140.77 114.986 139.646 114.22 139.646 114.22C139.646 114.22 139.017 115.894 137.25 114.957C135.482 114.021 133.333 113.446 131.092 113.929C128.85 114.411 125.068 113.723 125.902 110.062C126.722 106.401 127.783 106.11 127.783 106.11Z" fill="#EFBBB9"/>
<path d="M99.9341 70.934C103.872 71.5867 110.737 79.1853 109.493 85.599C108.248 92.0127 108.432 95.4395 107.28 96.3122C106.127 97.1777 106.799 98.7883 108.439 98.7599C110.08 98.7315 117.948 99.1146 122.473 100.754C126.998 102.392 131.996 104.422 129.303 108.281C126.609 112.141 126.779 114.092 118.302 114.553C109.832 115.014 96.7032 116.1 93.5288 112.815C90.3543 109.537 89.3928 103.613 90.4533 98.7599C91.5138 93.8999 95.275 70.1607 99.9341 70.934Z" fill="#6E66BE"/>
<path d="M96.8018 100.846C96.8018 100.846 101.213 97.3125 105.554 98.0504" stroke="#BFA1FF" stroke-miterlimit="10" stroke-linecap="round" stroke-linejoin="round"/>
<path d="M98.3359 100.846C98.3359 100.846 101.602 99.7532 106.509 101.428" stroke="#BFA1FF" stroke-miterlimit="10" stroke-linecap="round" stroke-linejoin="round"/>
<path d="M100.358 71.0333C100.358 71.0333 96.2223 91.9843 94.9709 95.9858C93.7195 99.9873 92.758 106.16 93.4296 105.003C94.1013 103.847 95.3527 103.84 94.9709 105.145C94.5891 106.451 95.5506 107.997 96.7949 107.706C98.0463 107.416 103.236 108.863 108.043 110.119C112.851 111.374 127.818 110.119 127.818 110.119" stroke="#BFA1FF" stroke-miterlimit="10" stroke-linecap="round" stroke-linejoin="round" stroke-dasharray="5 5"/>
<path d="M121.971 23.9237C128.702 23.498 132.484 28.2374 133.446 32.2247C134.407 36.2119 137.546 47.9893 133.446 50.8202C129.345 53.651 127.224 54.1689 127.224 54.1689C127.224 54.1689 126.581 59.1211 127.542 64.3358C127.542 64.3358 124.658 73.6655 116.45 63.6263C116.45 63.6263 117.284 57.7093 115.615 52.3669C113.947 47.0245 107.86 36.4745 108.114 34.417C108.383 32.3524 111.713 24.5622 121.971 23.9237Z" fill="#EFBBB9"/>
<path d="M116.393 29.9047C116.393 29.9047 120.946 26.6907 124.276 29.0675C127.613 31.4442 130.165 32.5723 133.021 30.8838C133.021 30.8838 133.87 33.9416 134.103 34.9491C134.103 34.9491 137.808 35.5663 140.501 30.2239C143.195 24.8815 139.158 23.5974 136.528 24.1791C133.898 24.7609 133.191 23.5974 132.23 20.7665C131.268 17.9357 126.27 16.4529 122.36 18.9645C118.45 21.476 117.552 21.2774 115.884 19.0283C114.215 16.7792 106.65 17.0985 106.269 22.7602C105.887 28.4219 107.81 31.6358 105.18 32.4091C102.55 33.1825 102.345 41.4763 113.028 46.0738L111.196 42.2213C111.196 42.2213 115.82 42.1858 117.171 37.6167C118.507 33.0548 116.393 29.9047 116.393 29.9047Z" fill="#82AAFC"/>
<path d="M122.622 37.4181C122.678 37.865 122.353 38.2765 121.907 38.3262C121.462 38.383 121.052 38.0566 121.002 37.6096C120.946 37.1626 121.271 36.7511 121.717 36.7015C122.162 36.6447 122.565 36.964 122.622 37.4181Z" fill="#A5565C"/>
<path d="M130.462 35.5096C130.519 35.9565 130.193 36.368 129.748 36.4177C129.303 36.4745 128.893 36.1481 128.836 35.7011C128.779 35.2542 129.105 34.8427 129.55 34.793C129.995 34.7433 130.406 35.0626 130.462 35.5096Z" fill="#A5565C"/>
<path d="M125.944 33.6365C125.944 33.6365 126.588 39.8161 131.713 39.6175C131.713 39.6175 131.395 41.6111 128.829 43.0301" stroke="#A5565C" stroke-width="1.5" stroke-miterlimit="10" stroke-linecap="round" stroke-linejoin="round"/>
<path d="M123.187 45.2791C123.187 45.2791 128.058 48.3015 131.134 44.6335" stroke="#A5565C" stroke-width="1.5" stroke-miterlimit="10" stroke-linecap="round" stroke-linejoin="round"/>
<path d="M114.024 48.2944L111.104 38.9789C111.104 38.9789 107.053 36.8008 105.427 40.3482C103.801 43.8956 111.274 49.5006 114.024 48.2944Z" fill="#E7818E"/>
<path d="M115.113 50.8983C115.311 51.4162 115.488 51.9057 115.622 52.3598C116.294 54.5237 116.556 56.7728 116.633 58.6955C119.461 61.0439 124.559 62.8885 127.139 61.2283C126.821 57.312 127.224 54.1619 127.224 54.1619C127.224 54.1619 118.401 55.6305 115.113 50.8983Z" fill="#E7818E"/>
<path d="M123.173 39.9864C123.187 40.5895 122.346 41.1003 121.3 41.1287C120.246 41.1571 119.377 40.6888 119.362 40.0858C119.348 39.4827 120.19 38.9719 121.236 38.9435C122.289 38.9151 123.159 39.3834 123.173 39.9864Z" fill="#E7818E"/>
<path d="M133.587 35.9494C133.919 36.4532 133.474 37.3329 132.597 37.9147C131.721 38.4965 130.738 38.5603 130.406 38.0566C130.073 37.5529 130.519 36.6731 131.395 36.0913C132.279 35.5096 133.255 35.4457 133.587 35.9494Z" fill="#E7818E"/>
<path d="M130.335 80.2283C131.169 79.4762 127.931 73.1476 124.517 69.1816C121.102 65.2156 116.245 60.1073 114.421 60.5472C112.597 60.98 108.058 65.6129 108.114 67.9329C108.171 70.2458 111.861 72.6581 115.672 74.3537C120.303 76.39 128.843 81.5834 130.335 80.2283Z" fill="#6E66BE"/>
<path d="M130.427 79.391L127.125 61.0154C127.125 61.0154 131.155 62.6614 132.166 64.7402C133.17 66.819 134.697 82.8533 130.427 79.391Z" fill="#6E66BE"/>
<path d="M144.539 37.482C146.059 35.1619 149.162 34.4596 150.258 34.2822C152.075 36.9782 155.151 38.759 158.643 38.759C164.228 38.759 168.753 34.2183 168.753 28.6134C168.753 23.0085 164.228 18.4678 158.643 18.4678C153.058 18.4678 148.533 23.0085 148.533 28.6134C148.533 28.7624 148.547 28.9114 148.554 29.0675C144.517 30.7561 144.539 37.482 144.539 37.482Z" fill="#FFFEDC"/>
<path d="M164.377 26.2721C162.631 21.171 158.891 26.7191 158.891 26.7191C158.891 26.7191 155.151 21.171 153.404 26.2721C152.019 30.3233 158.891 33.7997 158.891 33.7997C158.891 33.7997 165.77 30.3233 164.377 26.2721Z" fill="#FF7BC0"/>
<path d="M39.1179 128.005C39.1179 128.005 30.7966 158.371 30.8602 160.279C30.9239 162.188 33.3064 184.139 34.6356 197.527C35.1234 202.422 37.0606 212.242 37.0606 212.242C37.0606 212.242 40.7794 212.575 44.2932 210.106C44.2932 210.106 44.6608 188.396 45.0426 179.811C45.4244 171.226 45.1133 164.784 46.4636 162.571C47.8211 160.364 53.8376 135.206 53.8376 135.206C53.8376 135.206 49.0866 129.204 39.1179 128.005Z" fill="#F0BAB7"/>
<path d="M44.6111 194.029C40.2843 196.2 36.6786 196.633 34.5435 196.633C34.5717 196.931 34.6 197.236 34.6354 197.527C35.1232 202.422 37.0604 212.242 37.0604 212.242C37.0604 212.242 40.7792 212.575 44.2929 210.106C44.2859 210.106 44.4202 202.188 44.6111 194.029Z" fill="#E986CA"/>
<path d="M37.0605 196.456L39.7259 211.901" stroke="white" stroke-miterlimit="10"/>
<path d="M40.9136 195.562L41.8468 211.411" stroke="white" stroke-miterlimit="10"/>
<path d="M45.2546 215.697L46.9372 205.423C46.9372 205.423 45.0495 204.359 43.275 203.806C39.7895 202.727 33.9426 204.764 33.9426 204.764C33.9426 204.764 36.1909 213.05 35.2576 213.689C34.3244 214.327 25.3738 221.032 23.4932 220.947C21.6126 220.855 14.5921 221.685 14.7547 224.161C14.9173 226.637 15.5254 229.113 15.5254 229.113C15.5254 229.113 22.5883 229.475 30.3794 228.879C38.1634 228.29 44.1022 226.985 44.689 226.282C45.2687 225.573 45.1414 222.018 45.2546 215.697Z" fill="#4C57A7"/>
<path d="M43.2752 203.806C43.2752 203.806 41.2673 213.845 41.5077 215.2C41.7481 216.555 39.8816 217.981 39.3019 219.287C38.7222 220.592 37.6899 226.013 37.6899 226.013" stroke="#FFCF4A" stroke-miterlimit="10" stroke-linecap="round" stroke-linejoin="round"/>
<path d="M45.0497 224.799C45.0497 224.799 29.312 228.056 15.1367 227.226" stroke="#FFCF4A" stroke-miterlimit="10" stroke-linecap="round" stroke-linejoin="round"/>
<path d="M44.611 145.054C36.0846 142.883 30.563 136.98 30.563 136.98L47.1138 101.108C47.1138 101.108 61.3951 101.137 66.542 106.046L61.3385 144.685C61.3315 144.685 53.7242 147.374 44.611 145.054Z" fill="#9AA3F1"/>
<path d="M32.4295 132.929L30.563 136.973C30.563 136.973 36.0846 142.883 44.611 145.046C53.7313 147.366 61.3315 144.678 61.3315 144.678L62.095 138.988C47.135 139.81 35.8867 134.724 32.4295 132.929Z" fill="#BBC2FF"/>
<path d="M69.3493 70.2387C69.3493 70.2387 74.0791 89.2812 73.7044 90.9201C73.3297 92.559 70.3178 98.32 66.4294 98.0859C62.5409 97.8376 62.8661 71.9557 69.3493 70.2387Z" fill="#7C55C1"/>
<path d="M35.5196 16.3961C35.5196 16.3961 28.8385 21.3483 30.5353 25.5981C32.225 29.8479 36.368 36.8292 33.3562 39.0002C33.3562 39.0002 34.954 40.6036 37.1174 40.4192C37.1174 40.4192 40.5958 45.9673 42.6673 45.8396C44.7388 45.7048 49.2495 41.8381 50.1898 42.1219C51.1301 42.4057 54.8913 47.4076 54.5166 51.0898C54.5166 51.0898 60.9149 52.3172 64.1106 46.5562C64.1106 46.5562 60.724 42.1219 60.3493 34.949C59.9746 27.7762 55.8316 13.8987 51.9785 12.7635C48.1183 11.6284 42.2856 12.0044 35.5196 16.3961Z" fill="#F0BAB7"/>
<path d="M37.9162 32.4091C37.9657 32.849 37.6546 33.2463 37.2163 33.3031C36.778 33.3527 36.382 33.0406 36.3255 32.6007C36.276 32.1608 36.5871 31.7635 37.0254 31.7067C37.4637 31.6571 37.8597 31.9692 37.9162 32.4091Z" fill="#A5401D"/>
<path d="M38.4321 42.3064C38.4321 42.3064 41.253 41.9304 41.0692 38.7164" stroke="#A5401D" stroke-width="1.5" stroke-miterlimit="10" stroke-linecap="round" stroke-linejoin="round"/>
<path d="M60.9149 39.0286C60.6321 37.7941 60.42 36.4318 60.3422 34.9419C60.2644 33.523 60.0453 31.8415 59.7059 30.0465C57.1961 36.9498 48.8535 42.5902 48.8535 42.5902C49.4686 42.2496 49.9494 42.0439 50.1897 42.1148C50.8048 42.2993 52.636 44.527 53.7177 47.0741C55.1741 46.7193 56.7436 45.8892 58.1859 44.4774C59.4585 43.2216 60.3422 41.2067 60.9149 39.0286Z" fill="#E7818E"/>
<path d="M38.3403 23.5193C38.3403 23.5193 45.2053 28.6134 44.5478 30.5077C43.8903 32.3949 43.2469 41.9162 45.9618 42.3064C45.9618 42.3064 48.1252 37.7728 50.6633 37.8721C53.2014 37.9644 57.1535 39.9509 59.7906 38.0637C62.4277 36.1765 62.9862 32.4375 66.3728 31.7138C69.7593 30.9902 70.6077 24.8531 70.6077 24.8531C70.6077 24.8531 66.6556 25.889 65.2486 24.5694C63.8346 23.2497 65.9981 20.6104 63.7427 19.2837C61.4874 17.9641 58.3837 18.9999 57.4434 17.3965C56.5031 15.7931 58.4756 10.6919 49.6382 8.71242C40.7936 6.73297 28.9444 13.0545 27.4385 20.6033C25.9326 28.1522 30.2664 31.7138 30.2664 31.7138L38.1636 26.9958L38.3403 23.5193Z" fill="#E16196"/>
<path d="M41.1895 32.5368C41.5642 32.9909 41.2248 33.8919 40.433 34.5517C39.6412 35.2116 38.6938 35.3747 38.3191 34.9207C37.9444 34.4666 38.2837 33.5656 39.0756 32.9057C39.8674 32.253 40.8148 32.0828 41.1895 32.5368Z" fill="#ED69B4"/>
<path d="M59.3096 46.173C54.8626 47.145 47.3684 55.5169 44.6394 65.0524C41.9104 74.5878 44.2647 89.8771 44.6394 95.1628C45.0141 100.448 60.6317 97.5254 66.8391 94.4107C66.8391 94.4107 66.5563 87.0463 68.7197 79.2136C70.8831 71.3739 74.4534 42.8669 59.3096 46.173Z" fill="#9B76D7"/>
<path d="M50.7547 138.867C50.7547 138.867 49.6235 164.479 50.7547 166.019C51.8859 167.558 66.8106 187.19 74.835 194.618C82.8594 202.046 85.744 204.437 85.744 204.437C85.744 204.437 88.3811 203.558 89.8799 199.528C89.8799 199.528 77.967 181.407 73.4493 174.107C68.9316 166.806 65.0431 161.663 64.9229 159.073C64.7957 156.483 66.9591 136.476 66.9591 136.476C66.9591 136.476 59.6558 134.213 50.7547 138.867Z" fill="#F0BAB7"/>
<path d="M86.868 202.295C88.3173 201.833 89.1728 200.663 89.5899 199.081C88.3102 197.13 83.0502 189.112 78.5749 182.16C76.1075 187.012 73.0745 189.659 71.1938 190.943C72.5018 192.341 73.732 193.596 74.8349 194.618C79.4304 198.868 82.3361 201.465 83.9834 202.912C85.0015 202.784 85.9771 202.586 86.868 202.295Z" fill="#E986CA"/>
<path d="M73.2158 189.339L84.1177 200.571" stroke="white" stroke-miterlimit="10"/>
<path d="M75.8955 186.416L85.5955 198.967" stroke="white" stroke-miterlimit="10"/>
<path d="M90.1909 196.995L85.2985 188.942C85.2985 188.942 82.0392 189.574 79.2819 191.965C76.5246 194.355 75.6479 199.137 75.6479 199.137C75.6479 199.137 82.9229 203.04 82.9229 204.175C82.9229 205.31 83.4249 216.506 82.2937 218.017C81.1625 219.528 77.9033 225.821 80.0384 227.077C82.1735 228.333 84.5561 229.219 84.5561 229.219C84.5561 229.219 88.8193 223.558 92.7078 216.761C96.5963 209.964 98.8516 204.302 98.6041 203.423C98.3425 202.536 95.3378 200.642 90.1909 196.995Z" fill="#4C57A7"/>
<path d="M79.2817 191.965C79.2817 191.965 86.4295 199.272 87.6879 199.833C88.9393 200.393 89.0666 202.749 89.8231 203.962C90.5725 205.175 94.461 209.077 94.461 209.077" stroke="#FFCF4A" stroke-miterlimit="10" stroke-linecap="round" stroke-linejoin="round"/>
<path d="M97.5862 202.28C97.5862 202.28 91.4283 217.172 82.7817 228.482" stroke="#FFCF4A" stroke-miterlimit="10" stroke-linecap="round" stroke-linejoin="round"/>
<path d="M46.3362 62.5054C46.3362 62.5054 48.7542 53.6723 52.3669 51.1962C55.9867 48.713 64.7252 47.3863 67.4259 50.4158C70.1267 53.4453 69.66 66.8545 69.66 66.8545C69.66 66.8545 71.4487 66.5707 71.1659 68.7417C70.8831 70.9127 69.0025 81.484 68.5288 86.3014C68.0552 91.1188 68.0552 94.7017 69.0944 97.348C70.1337 99.9944 75.7756 114.29 69.5681 121.655C69.5681 121.655 73.0324 145.486 72.0992 146.146C71.1659 146.806 67.2138 151.808 55.1737 150.58C43.1335 149.353 40.2207 144.819 40.2207 144.819L46.52 109.892C46.52 109.892 43.6072 103.57 42.6669 96.298C41.7266 89.0329 40.7863 72.58 41.8185 68.3444C42.8507 64.1088 44.1728 62.2216 44.1728 62.2216L46.3362 62.5054Z" fill="#BBC2FF"/>
<path d="M52.7627 104.258C52.7627 104.258 57.9026 101.995 63.1697 101.115" stroke="#7CA7F2" stroke-miterlimit="10" stroke-linecap="round" stroke-linejoin="round"/>
<path d="M56.2339 104.258C56.2339 104.258 61.1829 103.201 66.4358 104.258" stroke="#7CA7F2" stroke-miterlimit="10" stroke-linecap="round" stroke-linejoin="round"/>
<path d="M57.019 91.3884C57.019 91.3884 57.4362 102.492 58.8219 102.116C60.2076 101.74 60.6954 103.655 59.6561 103.79C58.6169 103.925 58.4048 106.146 59.5289 108.161C60.6601 110.175 59.9036 120.747 59.6561 125.401C59.4087 130.055 58.6169 143.677 58.6169 143.677" stroke="#7CA7F2" stroke-miterlimit="10" stroke-linecap="round" stroke-linejoin="round" stroke-dasharray="5 5"/>
<path d="M71.5124 104.968C71.5124 104.968 68.6774 105.77 67.426 105.77C66.1817 105.77 67.8431 111.935 67.829 115.085C67.829 115.085 67.8997 116.341 71.7457 117.54" stroke="#7CA7F2" stroke-miterlimit="10" stroke-linecap="round" stroke-linejoin="round"/>
<path d="M41.0479 140.222L40.2207 144.819C40.2207 144.819 43.1335 149.353 55.1737 150.58C67.2138 151.808 71.1659 146.806 72.0992 146.146C72.3466 145.969 72.283 144.167 72.0638 141.613C72.0568 141.62 72.0426 141.62 72.0355 141.62C57.3795 146.998 41.0479 140.222 41.0479 140.222Z" fill="#D4DAFF"/>
<path d="M50.7552 71.3739C50.7552 71.3739 49.1574 61.5546 51.5046 56.5528C53.8589 51.5509 64.577 47.6772 66.5566 52.8706C68.5291 58.064 66.7475 78.2629 65.1426 81.8458C63.5448 85.4358 58.0231 91.3813 57.0192 91.3813C56.0223 91.3884 51.9783 80.7248 50.7552 71.3739Z" fill="#9B76D7"/>
<path d="M32.861 55.7582L23.1398 43.4842C23.0832 43.4132 22.9984 43.3636 22.9064 43.3494L14.5003 41.9304C14.3376 41.902 14.1892 41.9801 14.1114 42.122L13.3479 43.5126C13.2772 43.6403 13.2842 43.8034 13.3761 43.917L26.0879 61.2141C26.1586 61.3135 26.2718 61.3702 26.3919 61.3702C26.4626 61.3702 26.5333 61.3489 26.5899 61.3135L31.5742 58.1492C31.6166 58.1208 31.6591 58.0782 31.6873 58.0357L32.8751 56.1981C32.9741 56.0633 32.967 55.8859 32.861 55.7582Z" fill="#615598"/>
<path d="M32.8609 55.7582L23.1397 43.4842C23.0831 43.4132 22.9983 43.3636 22.9064 43.3494L14.5002 41.9304C14.3446 41.9091 14.1962 41.973 14.1184 42.1078C14.0406 42.2426 14.0477 42.4058 14.1396 42.5335L26.8019 59.4901C26.8726 59.5894 26.9857 59.6391 27.1059 59.6391C27.1696 59.6391 27.2403 59.6249 27.2968 59.5823L32.7548 56.3116C32.8467 56.2549 32.9104 56.1626 32.9316 56.0562C32.9599 55.9498 32.9316 55.8434 32.8609 55.7582Z" fill="#8070C7"/>
<path d="M30.86 54.2683L22.7225 44.2646C22.6589 44.1937 22.574 44.144 22.4821 44.1298L17.3564 43.4061C17.2009 43.3848 17.0595 43.4558 16.9817 43.5906C16.9039 43.7254 16.911 43.8886 17.0029 44.0092L26.3706 56.6238C26.4413 56.7231 26.5544 56.7728 26.6746 56.7728C26.7312 56.7728 26.7877 56.7586 26.8372 56.7373L30.7328 54.843C30.8388 54.7933 30.9095 54.694 30.9378 54.5876C30.959 54.4741 30.9307 54.3605 30.86 54.2683Z" fill="#99E0FF"/>
<path d="M25.5507 54.5521C25.5507 54.5521 25.3598 51.6149 26.6748 50.6145C27.9898 49.6212 28.9796 50.0895 28.6473 51.6503C28.315 53.2112 29.5523 55.141 30.2522 55.6163C30.9521 56.0917 31.7935 58.731 30.5491 60.9942C29.3048 63.2575 28.3575 63.825 28.3575 63.825C28.3575 63.825 21.7329 62.8814 20.6936 61.3702C19.6614 59.859 20.7431 59.7526 20.0856 59.2631C19.4281 58.7735 20.0856 57.1063 19.3362 56.6167C18.5868 56.1272 19.2867 54.9991 18.6787 54.2399C18.0707 53.4879 17.4061 50.7635 18.6787 50.7777L21.9591 54.9565C21.9591 54.9636 23.5711 55.4248 25.5507 54.5521Z" fill="#F0BAB7"/>
<path d="M64.1104 52.1186C59.8542 50.5009 53.9508 58.5394 50.8471 65.4781C47.7434 72.4168 44.3569 75.2477 44.3569 75.2477L32.3167 59.7668C32.3167 59.7668 28.0818 58.2556 26.3921 64.1088C26.3921 64.1088 38.2414 92.4242 40.9704 92.708C43.6994 92.9918 56.2061 80.8171 60.6319 75.7159C65.0507 70.6219 72.2903 55.2332 64.1104 52.1186Z" fill="#7C55C1"/>
<path d="M10.1098 14.9417C15.6951 14.9417 20.2199 19.4823 20.2199 25.0872C20.2199 27.237 19.5482 29.2235 18.417 30.8624C19.0745 32.0047 20.6794 34.3389 23.1327 34.9703C23.1327 34.9703 17.3636 36.9711 14.3165 34.3034C13.0368 34.8923 11.6157 35.2257 10.1169 35.2257C4.53162 35.2257 0.00684421 30.6851 0.00684421 25.0801C-0.000225753 19.4823 4.52455 14.9417 10.1098 14.9417Z" fill="#FFFEDC"/>
<path d="M10.6472 26.6978C10.5553 26.9035 10.3856 27.0099 10.1381 27.0099C9.89775 27.0099 9.72807 26.9035 9.62202 26.6907C9.51597 26.4778 9.45234 26.1727 9.41699 25.7754L9.12713 22.4196C9.09885 22.1145 9.07764 21.8094 9.07764 21.5114C9.07764 21.0006 9.14127 20.6175 9.2756 20.3479C9.40992 20.0783 9.66444 19.9435 10.0533 19.9435C10.3714 19.9435 10.633 20.0499 10.831 20.2627C11.0289 20.4756 11.1279 20.7665 11.1279 21.1425C11.1279 21.4192 11.1067 21.8733 11.0643 22.5118L10.8451 25.7683C10.8098 26.1798 10.7461 26.492 10.6472 26.6978ZM9.38871 29.9614C9.18369 29.7769 9.08471 29.5286 9.08471 29.2164C9.08471 28.9326 9.18369 28.6985 9.38871 28.4998C9.59374 28.3012 9.83412 28.2019 10.1169 28.2019C10.3997 28.2019 10.6401 28.3012 10.8381 28.4998C11.036 28.6985 11.135 28.9397 11.135 29.2164C11.135 29.5357 11.0289 29.7911 10.8239 29.9685C10.6189 30.1458 10.3785 30.2381 10.1028 30.2381C9.82705 30.231 9.59374 30.1458 9.38871 29.9614Z" fill="#8CC63F"/>
</g>
<defs>
<clipPath id="clip0_258_7072">
<rect width="327" height="307" fill="white"/>
</clipPath>
</defs>
</svg>
